<svg xmlns="http://www.w3.org/2000/svg" viewBox="0 0 372 130"><path d="m100.47 30.871 9.449-6.2713-11.182 2.1259 6.2079-9.694-9.1097 6.5902 2.0408-11.363-6.2501 9.4708-2.349-11.256-2.1259 11.161-6.5052-9.4282 2.009 11.363-9.322-6.3776 6.282 9.7153-11.086-2.1259 9.5664 6.3776-11.065 1.5412 11.278 2.6361-9.5664 5.878 12.67-1.7006 7.8231-6.9835 8.0358 6.6752 12.479 2.0196-9.566-6.0587 11.235-2.4342-10.948-1.8601zm134.33 19.824-11.384-18.474h-14.03v51.021h13.818v-25.766l11.299 16.433h0.265l11.363-16.582v25.914h14.01v-51.021h-13.946l-11.395 18.474zm30.283 32.547h13.51v-51.021h-13.51v51.021zm32.282-51.021h-13.819v51.021h35.641v-13.244h-21.822v-37.777zm63.202 13.297v-13.297h-36.512v51.021h36.512v-12.904h-22.375v-5.5379h22.375v-13.255h-22.375v-6.0269h22.375z" fill="#DAA520"></path><path d="m82.693 33.688-20.993 49.554h20.972l1.0629-8.174h9.8534l0.8078 8.174h22.322l-21.376-51.021h-12.043l-0.4145 0.9992-0.1914 0.4677zm6.1332 3.5289h1.0629l0.861 8.663h-3.0613l1.1374-8.663zm-3.9329 29.39 1.9877-14.807h4.4324l1.4669 14.807h-7.887zm-49.756-5.4635v-13.042h-3.1888v4.9426h-5.0915v-4.9426h-3.1888v13.042h3.1888v-5.4529h5.0915v5.4529h3.1888zm12.149-2.6892h-6.1012v-2.7105h6.1012v-2.5192h-6.1012v-2.466h6.1012v-2.6573h-9.1412v13.042h9.1412v-2.6892zm-36.916-7.6638h3.6884v10.353h3.1888v-10.353h3.6777v-2.6892h-10.512l-0.0425 2.6892zm110.22 48.31h2.7v7.4409h1.998v-7.4409h2.732v-1.6795h-7.441l0.011 1.6795zm-71.514-0.776c-0.277-0.2847-0.61-0.5091-0.9779-0.659-0.4654-0.1735-0.9596-0.2564-1.4562-0.2445h-4.1348v9.1094h1.9983v-3.242h2.1259c0.4976 0.014 0.993-0.073 1.4562-0.255 0.3721-0.142 0.7066-0.368 0.9779-0.659 0.2518-0.267 0.4406-0.586 0.5527-0.935 0.2199-0.692 0.2199-1.435 0-2.1264-0.1044-0.3659-0.2896-0.7037-0.5421-0.9885zm-1.3605 2.7209c-0.0937 0.17-0.2291 0.312-0.3933 0.415-0.1735 0.1-0.3649 0.165-0.5634 0.191-0.2191 0.022-0.4398 0.022-0.659 0h-1.5625v-2.7316h1.5625c0.2207 0.0014 0.441 0.0192 0.659 0.0531 0.1992 0.0299 0.3906 0.0985 0.5634 0.202 0.1642 0.1024 0.2996 0.2451 0.3933 0.4145 0.1842 0.45 0.1842 0.954 0 1.403v0.053zm21.843 2.774-2.0302-6.3771h-2.0515l2.9443 9.1091h2.2641l3.0187-9.1091h-2.0621l-2.0833 6.3771zm-12.883-6.3771-3.4439 9.1091h2.0302l0.7122-2.03h3.412l0.6909 2.03h2.1259l-3.4014-9.1091h-2.1259zm-0.1913 5.5911 1.1798-3.3483 1.148 3.3483h-2.3278zm82.378-2.126h-3.678v-3.497h-2.009v9.109h2.009v-3.933h3.678v3.933h2.009v-9.109h-2.009v3.497zm-46.663 2.615-3.7947-6.112h-1.9983v9.109h1.807v-6.101l3.7946 6.101h1.9983v-9.109h-1.8707l0.0638 6.112zm-13.669 2.997h2.009v-9.109h-2.009v9.109zm25.616-3.433h2.02c-0.023 0.548-0.25 1.068-0.638 1.456-0.423 0.365-0.973 0.548-1.53 0.51-0.4 0.016-0.796-0.076-1.148-0.265-0.308-0.164-0.571-0.402-0.766-0.691-0.202-0.298-0.35-0.629-0.435-0.978-0.082-0.349-0.125-0.705-0.128-1.063-1e-3 -0.39 0.041-0.778 0.128-1.159 0.083-0.356 0.231-0.695 0.435-0.9987 0.19-0.2963 0.454-0.538 0.766-0.7016 0.352-0.1893 0.748-0.281 1.148-0.2657 0.442-0.0124 0.875 0.1222 1.233 0.3826 0.361 0.2869 0.606 0.6944 0.691 1.1484h1.913c-0.041-0.4861-0.186-0.9574-0.425-1.3822-0.22-0.3889-0.517-0.7288-0.872-0.9991-0.357-0.2772-0.76-0.4895-1.19-0.6272-0.437-0.1368-0.893-0.2049-1.35-0.2019-0.646-0.0129-1.287 0.1103-1.882 0.3614-0.54 0.2513-1.022 0.6134-1.413 1.0629-0.392 0.4476-0.691 0.9677-0.8827 1.5311-0.2081 0.608-0.3123 1.248-0.3083 1.892-3e-3 0.633 0.1012 1.261 0.3083 1.86 0.1917 0.553 0.4917 1.062 0.8827 1.498 0.392 0.432 0.875 0.773 1.413 1 0.595 0.251 1.236 0.374 1.882 0.361 0.449-5e-3 0.894-0.099 1.307-0.276 0.473-0.212 0.883-0.541 1.191-0.957l0.201 1.063h1.276v-4.921h-3.816l-0.011 1.36zm228.63-1.318c-0.282-0.18-0.585-0.323-0.904-0.425l-0.701-0.181-1.393-0.361c-0.283-0.069-0.56-0.162-0.829-0.277-0.158-0.062-0.294-0.169-0.393-0.308-0.079-0.131-0.116-0.283-0.106-0.4357-7e-3 -0.1686 0.038-0.3353 0.127-0.4783 0.086-0.129 0.198-0.2378 0.33-0.3189 0.132-0.0879 0.28-0.1493 0.436-0.1807 0.159-0.0156 0.319-0.0156 0.478 0 0.232-0.0018 0.463 0.0196 0.691 0.0638 0.195 0.0402 0.381 0.112 0.553 0.2126 0.161 0.1068 0.293 0.2532 0.382 0.4252 0.111 0.21 0.173 0.4427 0.181 0.68h1.934c0.016-0.4676-0.086-0.9319-0.297-1.3497-0.196-0.3628-0.472-0.6756-0.808-0.9141-0.355-0.2399-0.752-0.4128-1.169-0.5102-0.449-0.1078-0.91-0.1613-1.371-0.1594-0.413-1e-4 -0.824 0.0535-1.223 0.1594-0.379 0.1132-0.737 0.2853-1.063 0.5102-0.314 0.231-0.578 0.524-0.776 0.861-0.206 0.3736-0.309 0.7956-0.297 1.2228-0.012 0.368 0.068 0.733 0.234 1.062 0.147 0.289 0.357 0.54 0.616 0.734 0.265 0.197 0.554 0.357 0.861 0.478 0.326 0.124 0.66 0.227 0.999 0.308l0.978 0.256c0.297 0.071 0.588 0.163 0.872 0.276 0.23 0.081 0.441 0.212 0.616 0.383 0.079 0.077 0.141 0.169 0.181 0.272 0.041 0.103 0.059 0.213 0.053 0.323 0.01 0.202-0.05 0.401-0.17 0.563-0.121 0.148-0.274 0.268-0.446 0.351-0.182 0.087-0.375 0.148-0.574 0.181h-0.574c-0.259 1e-3 -0.516-0.032-0.766-0.096-0.234-0.053-0.455-0.155-0.648-0.298-0.186-0.131-0.335-0.306-0.436-0.51-0.122-0.244-0.18-0.514-0.17-0.786h-1.977c-0.022 0.503 0.084 1.004 0.308 1.456 0.192 0.419 0.484 0.784 0.851 1.063 0.378 0.27 0.803 0.468 1.254 0.584 0.476 0.119 0.965 0.18 1.456 0.181 0.557 7e-3 1.111-0.064 1.648-0.213 0.427-0.127 0.827-0.333 1.179-0.605 0.308-0.25 0.556-0.566 0.723-0.925 0.164-0.368 0.247-0.767 0.245-1.169 0.02-0.442-0.095-0.88-0.33-1.255-0.192-0.331-0.453-0.617-0.765-0.839v-0.011zm-53.232 1.318c0.047 0.532-0.096 1.063-0.404 1.499-0.198 0.18-0.432 0.316-0.687 0.399-0.255 0.082-0.524 0.109-0.79 0.079-0.334 0.011-0.667-0.047-0.978-0.17-0.224-0.101-0.421-0.254-0.574-0.446-0.133-0.191-0.224-0.409-0.266-0.638-0.043-0.239-0.064-0.481-0.064-0.723v-5.6654h-1.998v5.6654c-0.034 0.509 0.043 1.019 0.227 1.494 0.184 0.476 0.469 0.905 0.836 1.259 0.841 0.585 1.84 0.898 2.865 0.898 1.024 0 2.023-0.313 2.864-0.898 0.368-0.351 0.654-0.778 0.838-1.252s0.261-0.983 0.225-1.49v-5.6657h-2.094v5.6547zm-12.085-1.307c-0.281-0.183-0.585-0.326-0.904-0.426l-0.701-0.18-1.393-0.362c-0.283-0.069-0.561-0.161-0.829-0.276-0.156-0.066-0.292-0.172-0.393-0.308-0.079-0.131-0.116-0.2833-0.107-0.436-6e-3 -0.1687 0.038-0.3354 0.128-0.4784 0.085-0.129 0.198-0.2378 0.33-0.3188 0.132-0.088 0.28-0.1494 0.435-0.1807 0.163-0.0163 0.327-0.0163 0.489 0 0.229-0.0014 0.456 0.02 0.681 0.0637 0.194 0.0402 0.381 0.112 0.552 0.2126 0.162 0.1094 0.297 0.255 0.394 0.4252 0.102 0.2127 0.16 0.4443 0.17 0.6804h1.934c0.016-0.468-0.086-0.9322-0.297-1.35-0.196-0.3628-0.472-0.6756-0.808-0.9142-0.356-0.2399-0.752-0.4128-1.169-0.5102-0.45-0.1078-0.91-0.1613-1.372-0.1594-0.412 7e-4 -0.823 0.0542-1.222 0.1594-0.38 0.1102-0.739 0.2826-1.063 0.5102-0.32 0.2278-0.589 0.5213-0.787 0.861-0.206 0.3736-0.309 0.7957-0.297 1.2222-0.012 0.368 0.068 0.734 0.234 1.063 0.148 0.287 0.359 0.538 0.616 0.734 0.267 0.198 0.561 0.359 0.872 0.478 0.322 0.125 0.652 0.228 0.988 0.308l0.989 0.255c0.293 0.073 0.58 0.166 0.861 0.277 0.232 0.078 0.443 0.209 0.616 0.382 0.081 0.077 0.144 0.169 0.186 0.272 0.042 0.102 0.062 0.213 0.059 0.323 7e-3 0.204-0.057 0.403-0.181 0.564-0.119 0.15-0.272 0.271-0.446 0.351-0.182 0.087-0.375 0.148-0.574 0.18-0.192 0.01-0.383 0.01-0.574 0-0.258 1e-3 -0.516-0.031-0.766-0.095-0.233-0.056-0.454-0.157-0.648-0.298-0.186-0.131-0.335-0.306-0.436-0.51-0.122-0.244-0.18-0.514-0.17-0.787h-1.934c-0.023 0.504 0.083 1.005 0.308 1.456 0.196 0.42 0.491 0.785 0.861 1.063 0.375 0.271 0.796 0.469 1.243 0.585 0.48 0.12 0.973 0.18 1.467 0.181 0.553 6e-3 1.104-0.065 1.637-0.213 0.427-0.128 0.827-0.333 1.18-0.606 0.308-0.249 0.555-0.565 0.723-0.925 0.163-0.367 0.247-0.766 0.244-1.169 0.02-0.442-0.095-0.879-0.329-1.254-0.198-0.337-0.466-0.627-0.787-0.85h-0.01zm25.414 2.721c-0.185 0.19-0.409 0.338-0.657 0.435-0.247 0.097-0.512 0.141-0.778 0.128-0.399 0.015-0.795-0.076-1.148-0.266-0.308-0.164-0.57-0.401-0.765-0.691-0.202-0.297-0.35-0.628-0.436-0.977-0.081-0.349-0.124-0.705-0.127-1.063-2e-3 -0.39 0.041-0.779 0.127-1.159 0.084-0.357 0.232-0.695 0.436-0.9991 0.19-0.2962 0.454-0.538 0.765-0.7015 0.353-0.1894 0.749-0.2811 1.148-0.2658 0.239 9e-4 0.476 0.0404 0.702 0.1169 0.219 0.0794 0.424 0.1943 0.606 0.3402 0.176 0.1438 0.327 0.3163 0.446 0.5102 0.126 0.1881 0.206 0.4031 0.234 0.6271h1.935c-0.038-0.474-0.173-0.9354-0.398-1.3544s-0.535-0.7867-0.91-1.0797c-0.361-0.2771-0.767-0.4894-1.201-0.6271-0.456-0.1478-0.934-0.2197-1.414-0.2126-0.645-0.0128-1.286 0.1103-1.881 0.3614-0.541 0.2513-1.022 0.6134-1.414 1.0629-0.387 0.4503-0.687 0.9696-0.882 1.5305-0.204 0.61-0.305 1.249-0.298 1.892-6e-3 0.633 0.094 1.262 0.298 1.86 0.196 0.552 0.495 1.06 0.882 1.499 0.393 0.432 0.876 0.773 1.414 0.999 0.595 0.251 1.236 0.374 1.881 0.362 0.525 6e-3 1.047-0.081 1.542-0.256 0.454-0.161 0.87-0.414 1.222-0.744 0.356-0.329 0.641-0.727 0.84-1.169 0.221-0.487 0.358-1.008 0.404-1.541h-1.945c-0.065 0.511-0.28 0.992-0.617 1.382h-0.011zm-144.16-1.892h4.411v-1.552h-4.411v-1.9559h4.804v-1.6795h-6.835v9.1094h6.92v-1.69h-4.911l0.022-2.232zm197.18 0c-0.2-0.315-0.465-0.583-0.776-0.787-0.278-0.18-0.578-0.323-0.893-0.425-0.298-0.085-0.542-0.149-0.712-0.181l-1.382-0.361c-0.284-0.069-0.561-0.162-0.829-0.276-0.159-0.067-0.298-0.173-0.404-0.309-0.07-0.134-0.103-0.2843-0.096-0.4355-6e-3 -0.1687 0.038-0.3353 0.128-0.4783 0.084-0.1265 0.192-0.235 0.318-0.3189 0.137-0.0863 0.289-0.1475 0.447-0.1807 0.159-0.0156 0.319-0.0156 0.478 0 0.232-0.0014 0.463 0.02 0.691 0.0638 0.195 0.0401 0.381 0.1119 0.553 0.2125 0.162 0.1069 0.293 0.2532 0.383 0.4252 0.107 0.211 0.165 0.4439 0.17 0.6799h1.945c0.01-0.4669-0.092-0.93-0.298-1.3495-0.198-0.3607-0.474-0.6729-0.808-0.9142-0.356-0.2378-0.752-0.4105-1.169-0.5102-0.449-0.1066-0.909-0.1601-1.371-0.1594-0.413 0-0.824 0.0536-1.222 0.1594-0.379 0.1132-0.738 0.2854-1.063 0.5102-0.318 0.2309-0.586 0.5238-0.787 0.861-0.201 0.3756-0.304 0.7963-0.298 1.2227-6e-3 0.367 0.074 0.732 0.234 1.063 0.153 0.287 0.367 0.538 0.627 0.733 0.265 0.197 0.555 0.358 0.861 0.478 0.327 0.124 0.66 0.227 0.999 0.309l0.978 0.255c0.297 0.071 0.588 0.164 0.872 0.276 0.231 0.082 0.441 0.212 0.617 0.383 0.079 0.077 0.14 0.17 0.181 0.272 0.04 0.103 0.058 0.213 0.052 0.323 0.012 0.204-0.052 0.405-0.18 0.563-0.118 0.148-0.267 0.268-0.436 0.351-0.185 0.088-0.382 0.149-0.585 0.181-0.191 0.01-0.383 0.01-0.574 0-0.254 0-0.508-0.032-0.754-0.096-0.235-0.053-0.456-0.154-0.649-0.297-0.186-0.134-0.339-0.309-0.446-0.511-0.113-0.246-0.168-0.515-0.16-0.786h-1.934c-0.026 0.503 0.077 1.004 0.297 1.456 0.196 0.419 0.492 0.784 0.861 1.063 0.379 0.27 0.804 0.468 1.255 0.585 0.476 0.119 0.965 0.18 1.456 0.18 0.553 8e-3 1.104-0.063 1.637-0.212 0.431-0.126 0.835-0.331 1.19-0.606 0.308-0.25 0.555-0.566 0.723-0.925 0.164-0.368 0.247-0.767 0.245-1.169 0.027-0.481-0.1-0.957-0.362-1.361l-0.01 0.043zm-39.489 1.934c-0.185 0.191-0.408 0.34-0.656 0.438-0.247 0.097-0.513 0.14-0.778 0.126-0.4 0.014-0.796-0.078-1.148-0.266-0.308-0.164-0.571-0.401-0.766-0.691-0.199-0.298-0.343-0.629-0.425-0.978-0.09-0.347-0.136-0.704-0.138-1.063-3e-3 -0.39 0.043-0.78 0.138-1.158 0.08-0.356 0.224-0.695 0.425-0.9996 0.19-0.2962 0.454-0.538 0.766-0.7015 0.352-0.1884 0.748-0.2801 1.148-0.2658 0.242 0.0017 0.482 0.0412 0.712 0.117 0.215 0.0804 0.416 0.1953 0.595 0.3401 0.177 0.1465 0.331 0.3184 0.457 0.5102 0.118 0.1906 0.194 0.4046 0.223 0.6276h1.935c-0.045-0.492-0.19-0.9697-0.425-1.4035-0.219-0.4074-0.515-0.7684-0.872-1.063-0.362-0.2752-0.768-0.4872-1.201-0.6271-0.46-0.1471-0.941-0.2189-1.424-0.2126-0.646-0.0128-1.287 0.1103-1.882 0.3614-0.539 0.2529-1.021 0.6148-1.414 1.0629-0.374 0.4103-0.669 0.8859-0.871 1.4029-0.213 0.608-0.318 1.248-0.308 1.892-9e-3 0.634 0.095 1.264 0.308 1.86 0.188 0.553 0.484 1.063 0.871 1.499 0.395 0.43 0.877 0.77 1.414 0.999 0.595 0.251 1.236 0.375 1.882 0.362 0.524 6e-3 1.046-0.08 1.541-0.255 0.454-0.162 0.87-0.415 1.222-0.744 0.356-0.332 0.644-0.729 0.851-1.17 0.217-0.487 0.35-1.009 0.393-1.541h-1.945c-0.042 0.552-0.258 1.077-0.617 1.499l-0.011 0.042zm10.013-1.892h4.422v-1.594h-4.411v-1.9559h4.815v-1.6795h-6.813v9.1094h6.919v-1.69h-4.921l-0.011-2.19zm-69.218-4.0176c-0.388-0.4483-0.866-0.8104-1.403-1.063-1.208-0.4815-2.555-0.4815-3.763 0-0.54 0.2513-1.022 0.6135-1.413 1.063-0.392 0.4476-0.691 0.9676-0.883 1.5306-0.208 0.609-0.312 1.249-0.308 1.892-3e-3 0.633 0.101 1.262 0.308 1.86 0.192 0.553 0.492 1.063 0.883 1.499 0.392 0.432 0.875 0.773 1.413 0.999 1.208 0.482 2.555 0.482 3.763 0 0.534-0.229 1.012-0.57 1.403-0.999 0.391-0.436 0.691-0.946 0.882-1.499 0.207-0.598 0.312-1.227 0.309-1.86 4e-3 -0.643-0.101-1.283-0.309-1.892-0.183-0.5772-0.479-1.112-0.871-1.5731l-0.011 0.0425zm-0.946 4.5386c-0.086 0.349-0.233 0.681-0.436 0.978-0.191 0.288-0.45 0.525-0.754 0.691-0.353 0.187-0.749 0.278-1.148 0.266-0.4 0.015-0.796-0.077-1.148-0.266-0.308-0.164-0.571-0.401-0.766-0.691-0.202-0.297-0.35-0.629-0.435-0.978-0.082-0.348-0.125-0.705-0.128-1.063-1e-3 -0.39 0.041-0.778 0.128-1.158 0.083-0.357 0.231-0.696 0.435-0.9996 0.19-0.2962 0.454-0.538 0.766-0.7015 0.352-0.1893 0.748-0.2811 1.148-0.2658 0.399-0.0128 0.795 0.0788 1.148 0.2658 0.305 0.1684 0.564 0.4093 0.754 0.7015 0.205 0.3036 0.352 0.6426 0.436 0.9996 0.086 0.38 0.129 0.768 0.128 1.158-3e-3 0.343-0.042 0.686-0.117 1.021l-0.011 0.042zm-49.788-5.7079-3.444 9.1089h2.009l0.712-2.03h3.412l0.691 2.03h2.126l-3.401-9.1089h-2.105zm-0.191 5.5909 1.18-3.3481 1.148 3.3481h-2.328zm-22.067 2.466v-0.595-0.51c0-0.149-0.053-0.457-0.095-0.691-0.051-0.217-0.125-0.427-0.223-0.627-0.101-0.191-0.239-0.361-0.404-0.5-0.176-0.148-0.383-0.254-0.606-0.308 0.444-0.17 0.818-0.485 1.063-0.893 0.23-0.427 0.344-0.907 0.329-1.392 6e-3 -0.3318-0.055-0.6609-0.18-0.9677-0.119-0.3003-0.3-0.572-0.532-0.7972-0.242-0.2381-0.532-0.4228-0.85-0.5421-0.338-0.137-0.699-0.2056-1.063-0.202h-4.911v9.109h1.998v-3.635h1.999c0.384-0.035 0.766 0.083 1.063 0.33 0.258 0.296 0.411 0.67 0.435 1.063 0.054 0.361 0.096 0.744 0.117 1.148 0.013 0.362 0.081 0.721 0.202 1.062h2.009c-0.102-0.139-0.174-0.298-0.212-0.467-0.064-0.204-0.107-0.415-0.128-0.627l-0.011 0.042zm-2.296-4.252c-0.303 0.231-0.682 0.341-1.062 0.309h-2.19v-2.5726h2.19c0.38-0.0324 0.759 0.0774 1.062 0.3082 0.123 0.1254 0.217 0.2759 0.276 0.441 0.058 0.1652 0.08 0.3414 0.065 0.5154 0.012 0.175-0.01 0.351-0.067 0.517-0.056 0.167-0.146 0.32-0.263 0.451l-0.011 0.031zm55.326-2.1254h2.732v7.4404h1.998v-7.4404h2.732v-1.6795h-7.441l-0.021 1.6795zm-13.595-0.5953c-0.37-0.3787-0.82-0.6693-1.318-0.8503-0.525-0.1864-1.079-0.2799-1.637-0.2764h-3.922v9.1094h3.922c0.624 0.015 1.244-0.104 1.818-0.351 0.499-0.216 0.939-0.548 1.286-0.967 0.359-0.425 0.624-0.921 0.776-1.456 0.175-0.594 0.261-1.21 0.255-1.829 0.013-0.671-0.091-1.341-0.308-1.9766-0.187-0.5247-0.484-1.0032-0.872-1.4031zm-1.063 4.8467c-0.108 0.313-0.282 0.599-0.51 0.84-0.203 0.213-0.454 0.374-0.733 0.468-0.27 0.094-0.554 0.14-0.84 0.138h-1.786v-5.7399h1.425c0.424-0.0127 0.847 0.0596 1.243 0.2125 0.321 0.1266 0.604 0.3356 0.819 0.6059 0.212 0.2845 0.36 0.6105 0.435 0.9565 0.094 0.408 0.141 0.825 0.139 1.244 0.041 0.427 9e-3 0.859-0.096 1.275h-0.096zm-25.319-4.8041c-0.388-0.4484-0.866-0.8104-1.403-1.063-0.598-0.251-1.243-0.3741-1.892-0.3614-0.645-0.0128-1.286 0.1103-1.881 0.3614-0.54 0.2529-1.021 0.6148-1.414 1.063-0.388 0.4482-0.684 0.9682-0.872 1.5301-0.213 0.608-0.317 1.249-0.308 1.892-9e-3 0.634 0.096 1.264 0.308 1.861 0.188 0.552 0.485 1.062 0.872 1.498 0.395 0.43 0.877 0.771 1.414 1 0.595 0.251 1.236 0.374 1.881 0.361 0.649 0.013 1.294-0.11 1.892-0.361 0.534-0.23 1.012-0.57 1.403-1 0.388-0.436 0.684-0.946 0.872-1.498 0.213-0.597 0.317-1.227 0.308-1.861 9e-3 -0.643-0.095-1.284-0.308-1.892-0.159-0.5545-0.422-1.0741-0.776-1.5301h-0.096zm-0.956 4.5391c-0.083 0.348-0.227 0.679-0.426 0.977-0.194 0.29-0.457 0.527-0.765 0.691-0.353 0.187-0.749 0.279-1.148 0.266-0.399 0.014-0.795-0.077-1.148-0.266-0.308-0.164-0.571-0.401-0.765-0.691-0.199-0.298-0.343-0.629-0.425-0.977-0.09-0.348-0.137-0.705-0.138-1.063-4e-3 -0.391 0.043-0.78 0.138-1.159 0.08-0.356 0.224-0.694 0.425-0.9991 0.19-0.2962 0.454-0.538 0.765-0.7015 0.353-0.1884 0.749-0.2801 1.148-0.2658 0.399-0.0128 0.795 0.0788 1.148 0.2658 0.309 0.167 0.572 0.408 0.765 0.7015 0.201 0.3051 0.345 0.6431 0.426 0.9991 0.095 0.379 0.141 0.768 0.138 1.159 0.029 0.354 0.015 0.711-0.043 1.063h-0.095zm-44.484-51.925c-6.378-1.5413-7.877-1.9665-7.77-4.3049 0.064-1.2012 1.637-2.3172 4.166-2.3704 4.093-0.0956 8.44 2.2322 12.671 5.3891l7.047-10.629c-5.363-4.6291-12.23-7.1424-19.314-7.0686-11.118 0-18.835 5.708-18.92 15.774-0.096 10.555 7.93 13.616 17.783 16.008 6.282 1.5412 7.515 2.3597 7.324 4.071-0.192 1.7113-1.956 2.5085-5.389 2.5085-5.315 0-9.216-2.6042-13.819-6.4626l-8.407 9.864c5.686 5.3997 13.818 9.2582 22.056 9.2582 11.235 0 19.632-6.1969 19.632-16.231v-0.1382c0.032-9.1837-6.42-13.212-17.06-15.668zm19.739-5.6655h14.137v37.702h14.711v-37.702h14.115v-13.319h-42.963v13.319zm-124.36-13.287h-15.2v12.755h15.2v-12.755zm21.12 37.745h-21.259v-5.6548h-14.977v18.899h36.267l-0.0319-13.244z" fill="#231F20"></path></svg>